# xmcd
#
# Track frame offsets: 
#        150
#        26400
#        52303
#        79761
#        105982
#        135232
#        163432
#        196207
#        220292
#        247787
#        273437
#        298367
#        328522
#
# Disc length: 4720 seconds
#
# Revision: 0
# Processed by: cddbd v1.5.2PL0 Copyright (c) Steve Scherf et al.
# Submitted via: ExactAudioCopy v0.95b3
#
DISCID=bd126e0d
DTITLE=Various Artist - Rare80 The Best Of Volume 1 (1983-1988) [CD1]
DTITLE=[RA000548]
DYEAR=2013
DGENRE=Pop
TTITLE0=Squash Gang - I Want An Illusion (Extended Version)
TTITLE1=J.D. Jaber - Don't Wake Me Up (New Mix)
TTITLE2=Jules - You And Me (Extended Version)
TTITLE3=Marce - I Want You (Vocal Version)
TTITLE4=Mozzart - Jasmin China Girl (Extended Version)
TTITLE5=Nove - Ride My Bike (Extended Version)
TTITLE6=Mr. Freaky - Out Of My Mind (Vocal Version)
TTITLE7=Solid Strangers - Music In The Night (Extended Version)
TTITLE8=Mike Cannon - Voices In The Dark (Extended Version)
TTITLE9=Webo - Magic Moment (Vocal Version)
TTITLE10=Thai Break - Flowers In The Rain (Single Version)
TTITLE11=Danny Keith - Keep On Music (Extended Version)
TTITLE12=Fair Control - Symphony Of Love (Vocal Version)
EXTD=
EXTT0=
EXTT1=
EXTT2=
EXTT3=
EXTT4=
EXTT5=
EXTT6=
EXTT7=
EXTT8=
EXTT9=
EXTT10=
EXTT11=
EXTT12=
PLAYORDER=
